<mxfile host="65bd71144e">
    <diagram id="fHkxbdIU0DCEsnaprkvq" name="第 1 页">
        <mxGraphModel dx="770" dy="424" grid="1" gridSize="10" guides="1" tooltips="1" connect="1" arrows="1" fold="1" page="1" pageScale="1" pageWidth="827" pageHeight="1169" math="0" shadow="0">
            <root>
                <mxCell id="0"/>
                <mxCell id="1" parent="0"/>
                <mxCell id="2" value="项目启动" style="ellipse;whiteSpace=wrap;html=1;" vertex="1" parent="1">
                    <mxGeometry x="60" y="50" width="90" height="30" as="geometry"/>
                </mxCell>
                <mxCell id="3" value="系统需求" style="rounded=0;whiteSpace=wrap;html=1;" vertex="1" parent="1">
                    <mxGeometry x="100" y="100" width="80" height="30" as="geometry"/>
                </mxCell>
                <mxCell id="4" value="系统架构设计&lt;br&gt;（仿真环境）" style="rounded=0;whiteSpace=wrap;html=1;" vertex="1" parent="1">
                    <mxGeometry x="130" y="140" width="80" height="30" as="geometry"/>
                </mxCell>
                <mxCell id="5" value="ECU设计" style="rounded=0;whiteSpace=wrap;html=1;" vertex="1" parent="1">
                    <mxGeometry x="160" y="190" width="80" height="30" as="geometry"/>
                </mxCell>
                <mxCell id="6" value="" style="endArrow=none;dashed=1;html=1;" edge="1" parent="1">
                    <mxGeometry width="50" height="50" relative="1" as="geometry">
                        <mxPoint x="50" y="180" as="sourcePoint"/>
                        <mxPoint x="560" y="180" as="targetPoint"/>
                    </mxGeometry>
                </mxCell>
                <mxCell id="8" value="OEM" style="text;html=1;strokeColor=none;fillColor=none;align=center;verticalAlign=middle;whiteSpace=wrap;rounded=0;" vertex="1" parent="1">
                    <mxGeometry x="50" y="140" width="60" height="30" as="geometry"/>
                </mxCell>
                <mxCell id="9" value="T1/T2" style="text;html=1;strokeColor=none;fillColor=none;align=center;verticalAlign=middle;whiteSpace=wrap;rounded=0;" vertex="1" parent="1">
                    <mxGeometry x="50" y="190" width="60" height="30" as="geometry"/>
                </mxCell>
                <mxCell id="18" style="edgeStyle=none;html=1;exitX=1;exitY=0.5;exitDx=0;exitDy=0;entryX=0;entryY=0;entryDx=10;entryDy=10;entryPerimeter=0;endArrow=none;endFill=0;" edge="1" parent="1" source="10" target="17">
                    <mxGeometry relative="1" as="geometry"/>
                </mxCell>
                <mxCell id="10" value="软/硬件模块实现" style="rounded=0;whiteSpace=wrap;html=1;" vertex="1" parent="1">
                    <mxGeometry x="190" y="230" width="140" height="30" as="geometry"/>
                </mxCell>
                <mxCell id="19" style="edgeStyle=none;html=1;exitX=1;exitY=0.5;exitDx=0;exitDy=0;entryX=0;entryY=0;entryDx=10;entryDy=10;entryPerimeter=0;endArrow=none;endFill=0;" edge="1" parent="1" source="12" target="16">
                    <mxGeometry relative="1" as="geometry"/>
                </mxCell>
                <mxCell id="12" value="ECU软硬件&lt;br&gt;集成" style="rounded=0;whiteSpace=wrap;html=1;" vertex="1" parent="1">
                    <mxGeometry x="280" y="190" width="80" height="30" as="geometry"/>
                </mxCell>
                <mxCell id="16" value="黑盒测试&lt;br&gt;ECU集成测试&lt;br&gt;功能测试&lt;br&gt;HIL测试&lt;br&gt;HOL测试" style="shape=card;whiteSpace=wrap;html=1;size=20;" vertex="1" parent="1">
                    <mxGeometry x="470" y="210" width="80" height="100" as="geometry"/>
                </mxCell>
                <mxCell id="17" value="白盒测试&lt;br&gt;SIL测试" style="shape=card;whiteSpace=wrap;html=1;size=20;" vertex="1" parent="1">
                    <mxGeometry x="470" y="320" width="80" height="50" as="geometry"/>
                </mxCell>
                <mxCell id="22" style="edgeStyle=none;html=1;exitX=1;exitY=0.5;exitDx=0;exitDy=0;entryX=-0.012;entryY=0.51;entryDx=0;entryDy=0;entryPerimeter=0;endArrow=none;endFill=0;" edge="1" parent="1" source="20" target="21">
                    <mxGeometry relative="1" as="geometry"/>
                </mxCell>
                <mxCell id="20" value="ECU软硬件&lt;br&gt;总线网络测试" style="rounded=0;whiteSpace=wrap;html=1;" vertex="1" parent="1">
                    <mxGeometry x="300" y="140" width="80" height="30" as="geometry"/>
                </mxCell>
                <mxCell id="21" value="黑盒测试&lt;br&gt;系统测试&lt;br&gt;HIL测试" style="shape=card;whiteSpace=wrap;html=1;size=20;" vertex="1" parent="1">
                    <mxGeometry x="470" y="120" width="80" height="50" as="geometry"/>
                </mxCell>
                <mxCell id="28" style="edgeStyle=none;html=1;exitX=1;exitY=0.5;exitDx=0;exitDy=0;entryX=0;entryY=0;entryDx=0;entryDy=30;entryPerimeter=0;endArrow=none;endFill=0;" edge="1" parent="1" source="23" target="24">
                    <mxGeometry relative="1" as="geometry"/>
                </mxCell>
                <mxCell id="23" value="合格的系统" style="rounded=0;whiteSpace=wrap;html=1;" vertex="1" parent="1">
                    <mxGeometry x="330" y="100" width="80" height="30" as="geometry"/>
                </mxCell>
                <mxCell id="24" value="应用案例测试" style="shape=card;whiteSpace=wrap;html=1;size=20;" vertex="1" parent="1">
                    <mxGeometry x="470" y="70" width="80" height="40" as="geometry"/>
                </mxCell>
                <mxCell id="27" style="edgeStyle=none;html=1;exitX=1;exitY=0.5;exitDx=0;exitDy=0;entryX=0;entryY=0;entryDx=0;entryDy=30;entryPerimeter=0;endArrow=none;endFill=0;" edge="1" parent="1" source="25" target="26">
                    <mxGeometry relative="1" as="geometry"/>
                </mxCell>
                <mxCell id="25" value="产品" style="rounded=0;whiteSpace=wrap;html=1;" vertex="1" parent="1">
                    <mxGeometry x="350" y="60" width="80" height="30" as="geometry"/>
                </mxCell>
                <mxCell id="26" value="EOL测试" style="shape=card;whiteSpace=wrap;html=1;size=20;" vertex="1" parent="1">
                    <mxGeometry x="470" y="20" width="80" height="40" as="geometry"/>
                </mxCell>
            </root>
        </mxGraphModel>
    </diagram>
</mxfile>